<svg width="13" height="14" viewBox="0 0 13 14" fill="none" xmlns="http://www.w3.org/2000/svg">
<path d="M7.71984 1.15752C8.22466 0.55187 9.16698 0.484575 9.6718 1.09023C9.94103 1.39306 10.042 1.72953 10.1093 2.2006C10.2776 3.14272 9.57084 4.55592 8.83044 4.62321C8.09004 4.69051 7.14772 4.05121 7.18137 2.53707C7.18137 1.96506 7.41695 1.52765 7.71984 1.15752ZM3.54669 0.989287C4.05151 0.383633 4.99383 0.316338 5.49865 0.921992C5.76788 1.22482 5.86885 1.56129 5.93616 2.03236C6.10443 2.97449 5.39769 4.38768 4.65729 4.45498C3.91689 4.52227 2.97457 3.88297 3.00822 2.36883C3.04187 1.79683 3.27746 1.32576 3.54669 0.989287ZM0.147593 5.73358C-0.0543341 5.29616 -0.0206799 4.8251 0.0802834 4.45498C0.28221 3.78203 1.02261 3.41191 1.66204 3.71473C1.96493 3.88297 2.20051 4.08485 2.43609 4.42133C2.90726 5.09428 2.8736 6.47382 2.26782 6.77665C1.66204 7.11313 0.686064 6.94489 0.147593 5.73358ZM10.5468 13.4052C9.80642 13.6744 8.9314 12.7995 8.32562 12.6986C7.7535 12.5977 7.18137 13.3043 6.60924 13.4725C6.03712 13.6744 5.33038 12.6986 4.75825 12.6986C4.45536 12.6986 4.11882 12.9005 3.84958 13.0687C3.54669 13.2706 3.17649 13.3379 2.80629 13.2706C0.854336 12.8332 1.22453 10.7807 1.83031 9.60304C2.73898 7.92066 4.15247 6.07005 6.94579 6.03641C9.26795 6.03641 11.1189 8.96374 11.7247 10.7471C12.2632 12.2275 11.0853 13.2033 10.5468 13.4052ZM12.9363 5.56534C12.768 6.37288 11.7247 7.28136 11.1189 7.04583C10.4795 6.8103 9.94103 5.96911 10.4459 4.79145C10.6478 4.32039 10.9843 4.05121 11.3209 3.88297C11.9266 3.58014 12.7344 3.84932 12.9363 4.52227C13.0372 4.85875 13.0036 5.12793 12.9363 5.56534Z" fill="white"/>
</svg>
