<svg width="165" height="108" viewBox="0 0 165 108" fill="none" xmlns="http://www.w3.org/2000/svg">
<path d="M3.95245 56.0039L2 52.1988L5.53146 50.3492L7.4986 54.1828C8.14941 55.4511 9.05133 56.4459 10.2043 57.1672C11.3573 57.8885 12.6124 58.2923 13.9695 58.3785C14.8903 58.4359 15.4748 58.4249 15.7232 58.3456L15.8027 58.395C15.793 58.376 15.5127 58.1584 14.962 57.7424C13.7835 56.8775 12.8762 55.8253 12.24 54.5855C11.5843 53.3077 11.2512 51.9425 11.2405 50.4899C11.2299 49.0374 11.5389 47.6678 12.1674 46.3811C13.0444 44.5692 14.3932 43.1957 16.2139 42.2607L21.7333 39.4263L23.5463 42.9596L18.0269 45.794C17.169 46.2345 16.4997 46.8433 16.0192 47.6203C15.5481 48.3923 15.2791 49.2294 15.2119 50.1314C15.1497 51.0429 15.3364 51.9231 15.7719 52.7718C16.1976 53.6015 16.7988 54.2567 17.5755 54.7375C18.3521 55.2182 19.1913 55.4922 20.0929 55.5593C20.9995 55.636 21.8746 55.4637 22.7184 55.0424L28.2807 52.186L30.101 55.7336L19.7057 61.0719C17.9231 61.9873 16.0106 62.4032 13.9682 62.3194C11.9402 62.2402 10.2632 61.8121 8.93706 61.0352C7.62048 60.2533 6.58664 59.4709 5.83553 58.6878C5.09395 57.8998 4.46626 57.0052 3.95245 56.0039Z" fill="#FF843D"/>
<path d="M32.1182 90.3449L29.1267 87.9086L33.3683 82.6963L28.345 78.6053L24.1034 83.8176L21.1119 81.3813L31.0665 69.1486L34.058 71.585L30.7804 75.6126L35.8037 79.7036L39.0813 75.676L42.0728 78.1123L32.1182 90.3449Z" fill="#FF843D"/>
<path d="M47.9766 98.2274C47.7753 98.2295 47.5093 98.2314 47.1785 98.2332C46.383 98.246 45.4933 98.027 44.5093 97.5761C43.5156 97.1209 42.6816 96.497 42.0072 95.7047C41.3426 94.9168 40.864 94.0313 40.5715 93.0484C40.0373 91.3063 40.1539 89.5971 40.9213 87.9208L44.4617 80.1874L47.9689 81.7942L44.4285 89.5277C44.0358 90.3853 44.001 91.2595 44.3239 92.1502C44.6565 93.0454 45.2515 93.6894 46.1088 94.0822C46.5667 94.292 47.0378 94.3958 47.522 94.3936C48.0062 94.3915 48.4725 94.2868 48.9209 94.0796C49.7102 93.7456 50.2878 93.179 50.6537 92.3799L54.1941 84.6464L57.6867 86.2466L51.1145 100.602L47.6219 99.0022L47.9766 98.2274Z" fill="#FF843D"/>
<path d="M74.3532 106L69.6147 105.198L66.6573 99.936L62.1187 103.93L57.3802 103.128L64.8136 96.3788L60.0098 87.5752L64.7483 88.377L67.7215 93.6419L72.2443 89.6454L76.9828 90.4472L69.5521 97.1806L74.3532 106Z" fill="#FF843D"/>
<path d="M90.3016 105.93L89.4559 102.148C90.4075 101.935 90.9389 101.734 91.0502 101.544C91.172 101.352 91.2118 101.162 91.1697 100.974L90.4538 97.7728C90.0421 95.9317 90.2651 94.1792 91.1228 92.5153C91.5446 91.652 92.1119 90.8989 92.8246 90.2561C93.8285 89.2955 95.0311 88.6583 96.4323 88.3447L101.107 87.2987L104.552 102.708L100.788 103.55L98.1842 91.9071L97.2588 92.1142C96.5187 92.2908 95.8956 92.6225 95.3896 93.1092C94.8836 93.5959 94.5183 94.172 94.2938 94.8374C94.0797 95.5004 94.0545 96.198 94.2183 96.9303C94.3633 97.5789 94.4703 98.0328 94.5393 98.2919C94.6082 98.5511 94.6707 98.8062 94.7269 99.0573C94.8579 99.6431 94.9536 100.341 95.014 101.151C95.0721 101.951 94.8141 102.811 94.2402 103.73C93.898 104.213 93.4755 104.632 92.9728 104.986C92.9043 105.023 92.8055 105.073 92.6766 105.135C92.5477 105.197 92.395 105.275 92.2185 105.369C92.0396 105.453 91.8636 105.525 91.6905 105.586L90.3016 105.93Z" fill="#FF843D"/>
<path d="M116.684 93.9203C117.382 93.5449 117.919 93.0376 118.293 92.3983C118.677 91.754 118.889 91.062 118.93 90.3222C118.965 89.573 118.796 88.849 118.42 88.1502C118.055 87.4703 117.551 86.9383 116.907 86.5544C116.258 86.1609 115.558 85.9464 114.81 85.9109C114.07 85.8702 113.351 86.0376 112.653 86.413C111.973 86.7782 111.436 87.2855 111.043 87.9349C110.659 88.5792 110.452 89.2807 110.422 90.0394C110.396 90.7835 110.565 91.4955 110.93 92.1754C111.305 92.8742 111.81 93.4182 112.445 93.8072C113.084 94.1817 113.778 94.3868 114.527 94.4224C115.285 94.4529 116.004 94.2855 116.684 93.9203ZM122.103 93.5815C121.938 93.8405 121.698 94.2312 121.383 94.7537C120.76 95.7695 119.803 96.6249 118.509 97.3198C117.207 98.0199 115.84 98.3405 114.41 98.2818C112.989 98.2179 111.664 97.8227 110.434 97.0962C109.209 96.3552 108.242 95.3237 107.532 94.0017C106.827 92.6891 106.507 91.322 106.57 89.9005C106.644 88.474 107.046 87.1505 107.777 85.9301C108.513 84.6951 109.532 83.7276 110.835 83.0276C111.882 82.4645 113.002 82.1487 114.194 82.0802C115.395 82.0066 116.544 82.1863 117.64 82.6194C118.557 82.9905 119.36 83.4897 120.05 84.117C120.734 84.7347 121.327 85.4319 121.83 86.2085L126.233 92.9136L122.821 94.7474L122.103 93.5815Z" fill="#FF843D"/>
<path d="M142.355 79.295L139.566 81.9613L131.326 73.3363L126.644 77.8135L134.884 86.4384L132.095 89.1048L121.201 77.7016L131.461 67.8918L142.355 79.295Z" fill="#FF843D"/>
<path d="M154.659 62.2117C153.471 64.0855 152.257 65.3397 151.017 65.9745C149.774 66.5946 148.461 66.8846 147.077 66.8446C145.694 66.8047 144.716 66.6157 144.144 66.2778L143.412 67.4319L149.072 71.0236L147.005 74.2823L133.677 65.8241L135.744 62.5655L140.141 65.3561L140.597 64.6365C140.993 64.012 141.206 63.347 141.234 62.6415C141.254 61.9303 141.101 61.2617 140.774 60.6357C140.445 59.9949 139.637 59.2668 138.352 58.4514L140.427 55.1792C142.689 56.6147 144.11 58.227 144.688 60.016C144.99 60.9816 145.129 61.7427 145.106 62.2993L145.201 62.3596C145.834 62.7616 146.511 62.9752 147.231 63.0005C147.942 63.02 148.615 62.8694 149.249 62.5487C149.89 62.2189 150.612 61.4204 151.416 60.1532L154.659 62.2117Z" fill="#FF843D"/>
<path d="M159.981 46.9179C160.005 47.1179 160.036 47.3822 160.074 47.711C160.173 48.5007 160.052 49.4093 159.711 50.4368C159.367 51.4745 158.838 52.3718 158.124 53.1286C157.413 53.8753 156.585 54.4475 155.64 54.8453C153.967 55.566 152.256 55.6359 150.507 55.0551L142.438 52.3753L143.653 48.7128L151.722 51.3926C152.617 51.6897 153.49 51.6293 154.34 51.2113C155.193 50.7831 155.768 50.1214 156.065 49.2261C156.224 48.748 156.276 48.2683 156.221 47.787C156.166 47.3057 156.012 46.8534 155.757 46.4299C155.339 45.6813 154.713 45.1685 153.88 44.8916L145.81 42.2119L147.02 38.5647L162 43.5391L160.79 47.1864L159.981 46.9179Z" fill="#FF843D"/>
<path d="M95.4578 25.6373C78.9156 24.522 78.1215 46.8344 85.2294 50.4719C85.7494 50.7409 86.2416 50.9427 86.7057 51.094C86.9071 51.1613 86.8959 51.4527 86.689 51.4975C83.574 52.2206 80.3584 51.4863 77.8083 48.6335C73.368 43.6677 71.0919 37.0261 70.0629 33.1252C69.6435 31.5335 70.734 29.9642 72.367 29.7848C76.852 29.286 84.5862 26.8928 83.1434 16.1429C83.0092 15.1397 82.9085 14.1252 82.8806 13.1108L82.7687 9.59098C82.7408 8.73906 81.846 8.19541 81.0798 8.56532L77.5399 10.2748C77.003 10.5326 76.3823 10.5662 75.8174 10.3644L69.856 8.20661C69.1234 7.94319 68.5809 7.30986 68.4299 6.54761L67.9099 3.95262C67.7421 3.11191 66.7634 2.71958 66.07 3.22401C63.2738 5.25292 57.4969 9.99452 56.865 14.8538C56.1547 20.324 57.1949 23.2497 62.2951 26.8143C63.0613 27.3468 63.5031 28.2323 63.4472 29.1627C63.0221 36.4488 61.5793 67.8914 68.0553 75.312C69.0787 76.4834 70.7787 76.7749 72.1265 76.0014C73.5525 75.1831 75.4372 73.5241 76.4997 70.251C76.9751 68.7825 78.4235 67.8521 79.9446 68.11C81.3259 68.3398 83.1322 68.4911 85.2014 68.2837C86.6834 68.1324 88.0423 69.0684 88.445 70.5032C89.2111 73.2103 90.7155 76.7581 93.1761 76.7637C99.2997 76.7749 118.946 27.2235 95.4578 25.6373ZM102.465 39.3073L100.161 46.5934C100.161 46.5934 100.161 46.6102 100.155 46.6158C99.8925 47.4229 98.6678 47.1763 98.7013 46.3244C98.8691 42.2834 98.4665 35.3559 93.8024 35.3559C87.3489 35.3559 86.9965 41.1512 89.3621 42.9503C91.0342 44.2226 93.355 43.3258 93.8024 41.8238C94.0317 41.0503 94.4176 48.1515 88.8644 45.3211C88.8532 45.3211 88.8476 45.3099 88.8364 45.3099C87.4719 44.6093 86.4597 43.3707 85.9899 41.9135C85.7215 41.0896 85.4139 40.1424 85.1511 39.3297C84.782 38.1919 85.1846 36.9421 86.1521 36.2415L88.0647 34.8459C88.1206 34.8067 88.1486 34.745 88.1486 34.6778V31.8698C88.1486 31.5223 88.4282 31.2421 88.7749 31.2421H89.748C90.0947 31.2421 90.3743 31.5223 90.3743 31.8698V32.7441C90.3743 32.9179 90.5701 33.0131 90.7043 32.9123L92.1974 31.8193C93.1705 31.1075 94.4903 31.1131 95.4634 31.8249L101.464 36.2471C102.415 36.9477 102.817 38.1807 102.459 39.3129L102.465 39.3073Z" fill="#FF843D"/>
</svg>
